<svg xmlns="http://www.w3.org/2000/svg" width="960" height="250" viewBox="0 0 960 250"><g fill="#bbcbd9" style="isolation:isolate"><path d="M71.8 142v40.6c0 6.2.6 10.7 1.9 13.6a9.8 9.8 0 0 0 6.8 5.7c3.2 1 8.4 1.5 15.5 1.7v5.1c-18.6-.5-32.4-.7-41.5-.7-7.5 0-17.1.2-28.5.5l-7.3.2V204c5-.3 8.7-.9 11-1.8a8.6 8.6 0 0 0 4.8-5.4c.8-2.6 1.2-6.9 1.2-12.8V68.2c0-5.9-.4-10.2-1.2-12.8a8.6 8.6 0 0 0-4.8-5.4c-2.3-.9-6-1.5-11-1.8v-4.7c7.7.5 19.2.7 34.5.7l25.1-.2c3.1-.2 6.5-.3 10.5-.3 20.4 0 35.9 4.2 46.7 12.5s16.1 19.5 16.1 33.5a51.3 51.3 0 0 1-6.4 24.6c-4.2 7.9-11.4 14.4-21.4 19.7s-23.4 8-40 8zm5.1-92.2a8.8 8.8 0 0 0-4 5.8c-.8 2.8-1.1 7-1.1 12.6v69.1h9.7c12.2 0 20.7-4 25.4-12.1s7-19.1 7-32.9-2.1-26.2-6.4-33.4-11.6-10.7-21.7-10.7c-4.1 0-7.1.5-8.9 1.6zM247 174.2l4.1 1.4a57.4 57.4 0 0 1-16.2 25.8c-7.8 7-17.5 10.6-29.2 10.6-16 0-28.7-5.3-38.2-15.8s-14.1-26-14.1-46.5 5-37.1 15.2-48.2 23.5-16.7 40.3-16.7q42.6 0 42.6 51.8h-63.7c-.1 2.3-.2 6-.2 11 0 10.2 1.4 18.8 4.2 25.6s6.4 11.9 10.9 15a24.4 24.4 0 0 0 14.4 4.6c12.4 0 22.3-6.2 29.9-18.6zm-52.9-74.1c-3.6 6.9-5.8 17.6-6.7 32.1H223c.3-12.3-.9-22.5-3.6-30.5s-6.6-12-11.9-12-9.9 3.5-13.4 10.4z"/><path d="M302.3 88.1h26.8v4.6h-26.8V187q0 7 2.4 9.9c1.6 2 4.1 2.9 7.6 2.9 6.5 0 11.6-4.6 15.4-14l3.8 2.1c-5.7 16.1-16 24.1-31 24.1-10 0-17.5-2.7-22.7-8a24.4 24.4 0 0 1-6.4-12.2c-1.2-4.9-1.7-11.6-1.7-20.2V92.7h-19.1v-4.6h19.1V57.3c12.5 0 23.4-2.5 32.6-7.5zm138.1-59.8a47.7 47.7 0 0 1 14.7 6.3 21.8 21.8 0 0 1 6.7 6.8 17.2 17.2 0 0 1 2.6 9.1c0 5.6-1.9 10-5.6 13.2s-8.9 4.8-15.7 4.8-11.9-1.6-15.7-4.8-5.6-7.5-5.6-13a15.8 15.8 0 0 1 3.9-10.6 23.2 23.2 0 0 1 11-6.6 19.2 19.2 0 0 0-6.2-2.3 46.3 46.3 0 0 0-8.5-.8c-13.2 0-22.8 5.8-29 17.3a43.4 43.4 0 0 0-4.8 15c-.9 6-1.3 14.6-1.3 25.6h26.9c12.3 0 21.8-.2 28.7-.6a173.7 173.7 0 0 0 19.8-2.2V187q0 9.6 3.6 13.2t12.3 3.6v4.9q-24.4-.9-31.5-.9t-31.5.9v-4.9c5.4 0 9.2-1.2 11.3-3.6s3.2-6.8 3.2-13.2v-73.5c0-7.2-1.2-12.4-3.5-15.6s-6.5-4.9-12.4-4.9h-26.9v94q0 9.6 4.5 13.2c3 2.4 7.5 3.6 13.6 3.6v4.9l-5.9-.2c-15-.5-24.3-.7-27.9-.7s-14.3.2-28.3.7l-4.6.2v-4.9c5.9 0 10.1-1.2 12.4-3.6s3.5-6.8 3.5-13.2V93h-16.8v-4.7h16.8q0-28.6 17.9-46.4a53.1 53.1 0 0 1 20.2-11.6 84.1 84.1 0 0 1 26.5-4.1q13.2 0 21.6 2.1zm154.3 65.6a26.4 26.4 0 0 1 5.5 11.4 93.5 93.5 0 0 1 1.6 18.9V187c0 6.4 1.1 10.8 3.2 13.2s6 3.6 11.3 3.6v4.9q-22.6-.9-30-.9t-29.4.9v-4.9c4.5 0 7.7-1.2 9.5-3.6s2.7-6.8 2.7-13.2v-72.6c0-6.3-1-11.2-3-14.4s-5.8-4.9-11-4.9-11.5 2.6-15.9 7.8-6.6 11.6-6.6 19.2V187q0 9.6 2.7 13.2c1.9 2.4 5 3.6 9.6 3.6v4.9q-20.9-.9-28.2-.9t-31.2.9v-4.9c5.4 0 9.2-1.2 11.3-3.6s3.2-6.8 3.2-13.2v-73.5c0-7.2-1.1-12.4-3.2-15.6s-5.9-4.9-11.3-4.9v-4.9c4.8.4 9.5.7 14 .7 13.5 0 24.5-1.1 33.1-3.3v21c6.8-14.5 19.2-21.7 37.2-21.7 11.5 0 19.8 3 24.9 9.1zm137.6 104.8c2.1 3.2 5.9 4.9 11.4 4.9v4.9a133.1 133.1 0 0 0-14.1-.7c-13.4 0-24.5 1.1-33.1 3.2v-20c-5.1 14-14.9 21-29.5 21s-25.5-5.4-33.8-16-12.6-26.7-12.4-48.2c0-13.7 2.2-25.2 6.5-34.7s10.2-16.4 17.9-21.2a48.7 48.7 0 0 1 26.2-7.1c11 0 19.4 3 25.1 8.9V54q0-10.8-3.3-15.6c-2.2-3.3-5.9-4.9-11.2-4.9v-4.9c4.8.4 9.5.7 14.1.7 13.1 0 24.1-1.1 33.1-3.3v157c0 7.2 1 12.4 3.1 15.7zm-42.7-2.4c3.9-3.7 6.2-8.8 6.9-15.1V99.5c-3.8-5.3-9.3-7.9-16.5-7.9s-14.2 4.7-18.6 14.2-6.5 23.6-6.4 42.5 1.7 32.6 5.4 41 9 12.6 15.9 12.6a18.4 18.4 0 0 0 13.3-5.6zm153.1-22.1l4.1 1.4a55.7 55.7 0 0 1-16.2 25.8c-7.8 7-17.5 10.6-29.1 10.6-16 0-28.8-5.3-38.2-15.8s-14.2-26-14.2-46.5 5.1-37.1 15.2-48.2 23.6-16.7 40.3-16.7q42.8 0 42.7 51.8h-63.7c-.2 2.3-.3 6-.3 11 0 10.2 1.4 18.8 4.2 25.6s6.5 11.9 10.9 15a24.9 24.9 0 0 0 14.4 4.6c12.4 0 22.4-6.2 29.9-18.6zm-52.9-74.1c-3.6 6.9-5.8 17.6-6.7 32.1h35.6c.3-12.3-.9-22.5-3.5-30.5s-6.6-12-11.9-12-10 3.5-13.5 10.4zm157-9a23 23 0 0 1 5.2 15.2c0 5.7-1.6 10.4-4.9 14.1a16.4 16.4 0 0 1-12.8 5.5c-5.1 0-9.2-1.4-12.2-4.1a13.8 13.8 0 0 1-4.6-10.9c0-7.4 3.4-13.5 10-18.2l-2.7-.2a11.5 11.5 0 0 0-3.6.5c-5.8.9-10.7 4.5-14.7 10.7a34.9 34.9 0 0 0-6 19.1v61.9c0 7.1 1.7 12.1 5.1 14.9s8.8 4.2 16.2 4.2v4.9l-5.2-.2c-15.4-.5-25.7-.7-30.8-.7s-13.4.2-27.9.7l-4.5.2v-4.9c5.4 0 9.2-1.2 11.3-3.6s3.2-6.8 3.2-13.2v-73.5c0-7.2-1.1-12.4-3.2-15.6s-5.9-4.9-11.3-4.9v-4.9c4.8.4 9.5.7 14 .7 13.5 0 24.5-1.1 33.1-3.3v21.7A39.8 39.8 0 0 1 913 91a29.8 29.8 0 0 1 18.4-6.2c6.8 0 11.9 2.1 15.4 6.3z"/></g></svg>